<svg xmlns="http://www.w3.org/2000/svg" xmlns:xlink="http://www.w3.org/1999/xlink" width="500" zoomAndPan="magnify" viewBox="0 0 375 374.999991" height="500" preserveAspectRatio="xMidYMid meet" version="1.0"><defs><clipPath id="4dbc00009a"><path d="M 9.230469 9.230469 L 365.480469 9.230469 L 365.480469 365.480469 L 9.230469 365.480469 Z M 9.230469 9.230469 " clip-rule="nonzero"/></clipPath></defs><g clip-path="url(#4dbc00009a)"><path fill="#e21726" d="M 365.488281 187.359375 C 365.488281 88.980469 285.738281 9.230469 187.359375 9.230469 C 88.980469 9.230469 9.230469 88.980469 9.230469 187.359375 C 9.230469 285.738281 88.980469 365.488281 187.359375 365.488281 C 285.738281 365.488281 365.488281 285.738281 365.488281 187.359375 " fill-opacity="1" fill-rule="nonzero"/></g><path fill="#ffffff" d="M 187.359375 244.527344 C 176.140625 244.527344 166.820312 235.878906 165.980469 224.691406 L 154.707031 74.113281 C 153.941406 63.910156 162.015625 55.203125 172.253906 55.203125 L 202.46875 55.203125 C 212.703125 55.203125 220.777344 63.910156 220.011719 74.113281 L 208.738281 224.691406 C 207.902344 235.878906 198.578125 244.527344 187.359375 244.527344 " fill-opacity="1" fill-rule="nonzero"/><path fill="#ffffff" d="M 214.964844 291.910156 C 214.964844 276.667969 202.605469 264.308594 187.359375 264.308594 C 172.113281 264.308594 159.757812 276.667969 159.757812 291.910156 C 159.757812 307.15625 172.113281 319.515625 187.359375 319.515625 C 202.605469 319.515625 214.964844 307.15625 214.964844 291.910156 " fill-opacity="1" fill-rule="nonzero"/></svg>