<svg xmlns="http://www.w3.org/2000/svg" xmlns:xlink="http://www.w3.org/1999/xlink" width="500" zoomAndPan="magnify" viewBox="0 0 375 374.999991" height="500" preserveAspectRatio="xMidYMid meet" version="1.0"><defs><clipPath id="507d90b19b"><path d="M 9.074219 26.917969 L 242 26.917969 L 242 347.917969 L 9.074219 347.917969 Z M 9.074219 26.917969 " clip-rule="nonzero"/></clipPath></defs><g clip-path="url(#507d90b19b)"><path fill="#e21726" d="M 187.5 348.070312 L 62.605469 348.070312 C 60.855469 348.070312 59.105469 347.980469 57.363281 347.808594 C 55.617188 347.636719 53.886719 347.375 52.167969 347.035156 C 50.449219 346.691406 48.753906 346.261719 47.074219 345.753906 C 45.398438 345.246094 43.75 344.652344 42.132812 343.980469 C 40.511719 343.308594 38.929688 342.5625 37.386719 341.734375 C 35.839844 340.90625 34.339844 340.007812 32.882812 339.035156 C 31.425781 338.058594 30.019531 337.015625 28.664062 335.90625 C 27.3125 334.792969 26.015625 333.617188 24.773438 332.378906 C 23.535156 331.136719 22.359375 329.839844 21.246094 328.488281 C 20.136719 327.132812 19.09375 325.726562 18.117188 324.269531 C 17.144531 322.8125 16.246094 321.3125 15.417969 319.765625 C 14.589844 318.222656 13.84375 316.640625 13.171875 315.019531 C 12.5 313.402344 11.910156 311.753906 11.398438 310.078125 C 10.890625 308.398438 10.460938 306.703125 10.117188 304.984375 C 9.777344 303.265625 9.519531 301.535156 9.34375 299.789062 C 9.171875 298.046875 9.082031 296.296875 9.082031 294.546875 L 9.082031 80.445312 C 9.082031 78.691406 9.171875 76.941406 9.34375 75.199219 C 9.519531 73.453125 9.777344 71.722656 10.117188 70.003906 C 10.460938 68.285156 10.890625 66.589844 11.398438 64.910156 C 11.910156 63.234375 12.5 61.585938 13.171875 59.96875 C 13.84375 58.351562 14.589844 56.769531 15.417969 55.222656 C 16.246094 53.675781 17.144531 52.175781 18.117188 50.71875 C 19.09375 49.261719 20.136719 47.855469 21.246094 46.5 C 22.359375 45.148438 23.535156 43.851562 24.773438 42.609375 C 26.015625 41.371094 27.3125 40.195312 28.664062 39.085938 C 30.019531 37.972656 31.425781 36.929688 32.882812 35.957031 C 34.339844 34.980469 35.839844 34.082031 37.386719 33.253906 C 38.929688 32.425781 40.511719 31.679688 42.132812 31.007812 C 43.75 30.335938 45.398438 29.746094 47.074219 29.234375 C 48.753906 28.726562 50.449219 28.300781 52.167969 27.957031 C 53.886719 27.613281 55.617188 27.355469 57.363281 27.179688 C 59.105469 27.007812 60.855469 26.921875 62.605469 26.917969 L 187.5 26.917969 C 189.253906 26.921875 191 27.007812 192.746094 27.179688 C 194.488281 27.355469 196.21875 27.613281 197.9375 27.957031 C 199.65625 28.300781 201.355469 28.726562 203.03125 29.234375 C 204.707031 29.746094 206.355469 30.335938 207.976562 31.007812 C 209.59375 31.679688 211.175781 32.425781 212.722656 33.253906 C 214.265625 34.082031 215.765625 34.980469 217.222656 35.957031 C 218.679688 36.929688 220.085938 37.972656 221.441406 39.085938 C 222.796875 40.195312 224.09375 41.371094 225.332031 42.609375 C 226.570312 43.851562 227.746094 45.148438 228.859375 46.5 C 229.972656 47.855469 231.015625 49.261719 231.988281 50.71875 C 232.960938 52.175781 233.863281 53.675781 234.6875 55.222656 C 235.515625 56.769531 236.265625 58.351562 236.9375 59.96875 C 237.609375 61.585938 238.199219 63.234375 238.707031 64.910156 C 239.21875 66.589844 239.644531 68.285156 239.988281 70.003906 C 240.332031 71.722656 240.589844 73.453125 240.761719 75.199219 C 240.9375 76.941406 241.023438 78.691406 241.023438 80.445312 L 241.023438 116.128906 C 241.023438 116.710938 240.996094 117.292969 240.9375 117.875 C 240.882812 118.457031 240.796875 119.035156 240.683594 119.609375 C 240.566406 120.179688 240.425781 120.746094 240.257812 121.304688 C 240.085938 121.867188 239.890625 122.414062 239.667969 122.953125 C 239.445312 123.496094 239.195312 124.023438 238.917969 124.539062 C 238.644531 125.054688 238.34375 125.554688 238.019531 126.039062 C 237.695312 126.527344 237.347656 126.996094 236.976562 127.445312 C 236.605469 127.898438 236.210938 128.332031 235.800781 128.742188 C 235.386719 129.15625 234.953125 129.546875 234.503906 129.917969 C 234.050781 130.289062 233.582031 130.636719 233.09375 130.960938 C 232.609375 131.285156 232.109375 131.585938 231.59375 131.863281 C 231.078125 132.136719 230.550781 132.386719 230.011719 132.609375 C 229.472656 132.835938 228.921875 133.03125 228.363281 133.199219 C 227.804688 133.371094 227.238281 133.511719 226.664062 133.625 C 226.089844 133.742188 225.515625 133.824219 224.933594 133.882812 C 224.351562 133.941406 223.769531 133.96875 223.183594 133.96875 C 222.597656 133.96875 222.015625 133.941406 221.433594 133.882812 C 220.851562 133.824219 220.277344 133.742188 219.703125 133.625 C 219.128906 133.511719 218.5625 133.371094 218.003906 133.199219 C 217.445312 133.03125 216.894531 132.835938 216.355469 132.609375 C 215.816406 132.386719 215.289062 132.136719 214.773438 131.863281 C 214.257812 131.585938 213.757812 131.285156 213.269531 130.960938 C 212.785156 130.636719 212.316406 130.289062 211.863281 129.917969 C 211.414062 129.546875 210.980469 129.15625 210.566406 128.742188 C 210.152344 128.332031 209.761719 127.898438 209.390625 127.445312 C 209.019531 126.996094 208.671875 126.527344 208.347656 126.039062 C 208.023438 125.554688 207.722656 125.054688 207.449219 124.539062 C 207.171875 124.023438 206.921875 123.496094 206.699219 122.953125 C 206.476562 122.414062 206.28125 121.867188 206.109375 121.304688 C 205.941406 120.746094 205.796875 120.179688 205.683594 119.609375 C 205.570312 119.035156 205.484375 118.457031 205.425781 117.875 C 205.371094 117.292969 205.339844 116.710938 205.339844 116.128906 L 205.339844 80.445312 C 205.339844 79.859375 205.3125 79.277344 205.253906 78.695312 C 205.199219 78.113281 205.113281 77.535156 205 76.964844 C 204.882812 76.390625 204.742188 75.824219 204.574219 75.265625 C 204.402344 74.707031 204.207031 74.15625 203.984375 73.617188 C 203.757812 73.074219 203.511719 72.546875 203.234375 72.03125 C 202.960938 71.519531 202.660156 71.015625 202.335938 70.53125 C 202.011719 70.046875 201.664062 69.578125 201.292969 69.125 C 200.921875 68.671875 200.527344 68.242188 200.117188 67.828125 C 199.703125 67.414062 199.269531 67.023438 198.820312 66.652344 C 198.367188 66.28125 197.898438 65.933594 197.410156 65.609375 C 196.925781 65.285156 196.425781 64.984375 195.910156 64.707031 C 195.394531 64.433594 194.867188 64.183594 194.328125 63.960938 C 193.789062 63.738281 193.238281 63.539062 192.679688 63.371094 C 192.121094 63.199219 191.554688 63.058594 190.980469 62.945312 C 190.40625 62.832031 189.832031 62.746094 189.25 62.6875 C 188.667969 62.628906 188.085938 62.601562 187.5 62.601562 L 62.605469 62.601562 C 62.023438 62.601562 61.441406 62.628906 60.859375 62.6875 C 60.277344 62.746094 59.699219 62.832031 59.125 62.945312 C 58.554688 63.058594 57.988281 63.199219 57.429688 63.371094 C 56.867188 63.539062 56.320312 63.738281 55.78125 63.960938 C 55.238281 64.183594 54.710938 64.433594 54.195312 64.707031 C 53.679688 64.984375 53.179688 65.285156 52.695312 65.609375 C 52.207031 65.933594 51.738281 66.28125 51.289062 66.652344 C 50.835938 67.023438 50.40625 67.414062 49.992188 67.828125 C 49.578125 68.242188 49.1875 68.671875 48.816406 69.125 C 48.445312 69.578125 48.097656 70.046875 47.773438 70.53125 C 47.449219 71.015625 47.148438 71.519531 46.871094 72.03125 C 46.597656 72.546875 46.347656 73.074219 46.125 73.617188 C 45.898438 74.15625 45.703125 74.707031 45.535156 75.265625 C 45.363281 75.824219 45.222656 76.390625 45.109375 76.964844 C 44.996094 77.535156 44.910156 78.113281 44.851562 78.695312 C 44.792969 79.277344 44.765625 79.859375 44.765625 80.445312 L 44.765625 294.546875 C 44.765625 295.128906 44.792969 295.710938 44.851562 296.292969 C 44.910156 296.875 44.996094 297.453125 45.109375 298.027344 C 45.222656 298.597656 45.363281 299.164062 45.535156 299.722656 C 45.703125 300.285156 45.898438 300.832031 46.125 301.371094 C 46.347656 301.914062 46.597656 302.441406 46.871094 302.957031 C 47.148438 303.472656 47.449219 303.972656 47.773438 304.457031 C 48.097656 304.945312 48.445312 305.414062 48.816406 305.863281 C 49.1875 306.316406 49.578125 306.75 49.992188 307.160156 C 50.40625 307.574219 50.835938 307.964844 51.289062 308.335938 C 51.738281 308.707031 52.207031 309.054688 52.695312 309.378906 C 53.179688 309.703125 53.679688 310.003906 54.195312 310.28125 C 54.710938 310.554688 55.238281 310.804688 55.78125 311.027344 C 56.320312 311.253906 56.867188 311.449219 57.429688 311.617188 C 57.988281 311.789062 58.554688 311.929688 59.125 312.042969 C 59.699219 312.15625 60.277344 312.242188 60.859375 312.300781 C 61.441406 312.359375 62.023438 312.386719 62.605469 312.386719 L 187.5 312.386719 C 188.085938 312.386719 188.667969 312.359375 189.25 312.300781 C 189.832031 312.242188 190.40625 312.15625 190.980469 312.042969 C 191.554688 311.929688 192.121094 311.789062 192.679688 311.617188 C 193.238281 311.449219 193.789062 311.253906 194.328125 311.027344 C 194.867188 310.804688 195.394531 310.554688 195.910156 310.28125 C 196.425781 310.003906 196.925781 309.703125 197.410156 309.378906 C 197.898438 309.054688 198.367188 308.707031 198.820312 308.335938 C 199.269531 307.964844 199.703125 307.574219 200.117188 307.160156 C 200.527344 306.75 200.921875 306.316406 201.292969 305.863281 C 201.664062 305.414062 202.011719 304.945312 202.335938 304.457031 C 202.660156 303.972656 202.960938 303.472656 203.234375 302.957031 C 203.511719 302.441406 203.757812 301.914062 203.984375 301.371094 C 204.207031 300.832031 204.402344 300.285156 204.574219 299.722656 C 204.742188 299.164062 204.882812 298.597656 205 298.027344 C 205.113281 297.453125 205.199219 296.875 205.253906 296.292969 C 205.3125 295.710938 205.339844 295.128906 205.339844 294.546875 L 205.339844 258.863281 C 205.339844 258.277344 205.371094 257.695312 205.425781 257.113281 C 205.484375 256.53125 205.570312 255.953125 205.683594 255.382812 C 205.796875 254.808594 205.941406 254.242188 206.109375 253.683594 C 206.28125 253.125 206.476562 252.574219 206.699219 252.035156 C 206.921875 251.492188 207.171875 250.964844 207.449219 250.449219 C 207.722656 249.9375 208.023438 249.433594 208.347656 248.949219 C 208.671875 248.464844 209.019531 247.996094 209.390625 247.542969 C 209.761719 247.089844 210.152344 246.660156 210.566406 246.246094 C 210.980469 245.832031 211.414062 245.441406 211.863281 245.070312 C 212.316406 244.699219 212.785156 244.351562 213.269531 244.027344 C 213.757812 243.703125 214.257812 243.402344 214.773438 243.125 C 215.289062 242.851562 215.816406 242.601562 216.355469 242.378906 C 216.894531 242.15625 217.445312 241.957031 218.003906 241.789062 C 218.5625 241.617188 219.128906 241.476562 219.703125 241.363281 C 220.277344 241.25 220.851562 241.164062 221.433594 241.105469 C 222.015625 241.046875 222.597656 241.019531 223.183594 241.019531 C 223.769531 241.019531 224.351562 241.046875 224.933594 241.105469 C 225.515625 241.164062 226.089844 241.25 226.664062 241.363281 C 227.238281 241.476562 227.804688 241.617188 228.363281 241.789062 C 228.921875 241.957031 229.472656 242.15625 230.011719 242.378906 C 230.550781 242.601562 231.078125 242.851562 231.59375 243.125 C 232.109375 243.402344 232.609375 243.703125 233.09375 244.027344 C 233.582031 244.351562 234.050781 244.699219 234.503906 245.070312 C 234.953125 245.441406 235.386719 245.832031 235.800781 246.246094 C 236.210938 246.660156 236.605469 247.089844 236.976562 247.542969 C 237.347656 247.996094 237.695312 248.464844 238.019531 248.949219 C 238.34375 249.433594 238.644531 249.9375 238.917969 250.449219 C 239.195312 250.964844 239.445312 251.492188 239.667969 252.035156 C 239.890625 252.574219 240.085938 253.125 240.257812 253.683594 C 240.425781 254.242188 240.566406 254.808594 240.683594 255.382812 C 240.796875 255.953125 240.882812 256.53125 240.9375 257.113281 C 240.996094 257.695312 241.023438 258.277344 241.023438 258.863281 L 241.023438 294.546875 C 241.023438 296.296875 240.9375 298.046875 240.761719 299.789062 C 240.589844 301.535156 240.332031 303.265625 239.988281 304.984375 C 239.644531 306.703125 239.21875 308.398438 238.707031 310.078125 C 238.199219 311.753906 237.609375 313.402344 236.9375 315.019531 C 236.265625 316.640625 235.515625 318.222656 234.6875 319.765625 C 233.863281 321.3125 232.960938 322.8125 231.988281 324.269531 C 231.015625 325.726562 229.972656 327.132812 228.859375 328.488281 C 227.746094 329.839844 226.570312 331.136719 225.332031 332.378906 C 224.09375 333.617188 222.796875 334.792969 221.441406 335.90625 C 220.085938 337.015625 218.679688 338.058594 217.222656 339.035156 C 215.765625 340.007812 214.265625 340.90625 212.722656 341.734375 C 211.175781 342.5625 209.59375 343.308594 207.976562 343.980469 C 206.355469 344.652344 204.707031 345.242188 203.03125 345.753906 C 201.355469 346.261719 199.65625 346.691406 197.9375 347.035156 C 196.21875 347.375 194.488281 347.636719 192.746094 347.808594 C 191 347.980469 189.253906 348.070312 187.5 348.070312 Z M 187.5 348.070312 " fill-opacity="1" fill-rule="nonzero"/></g><path fill="#e21726" d="M 294.550781 258.863281 C 293.671875 258.863281 292.800781 258.796875 291.933594 258.667969 C 291.066406 258.539062 290.210938 258.347656 289.371094 258.09375 C 288.53125 257.835938 287.714844 257.523438 286.921875 257.148438 C 286.128906 256.773438 285.371094 256.339844 284.640625 255.855469 C 283.910156 255.367188 283.222656 254.828125 282.570312 254.238281 C 281.921875 253.648438 281.316406 253.015625 280.761719 252.335938 C 280.207031 251.660156 279.703125 250.945312 279.25 250.191406 C 278.800781 249.4375 278.40625 248.65625 278.070312 247.847656 C 277.734375 247.035156 277.460938 246.207031 277.246094 245.355469 C 277.035156 244.503906 276.882812 243.640625 276.796875 242.769531 C 276.710938 241.894531 276.691406 241.019531 276.734375 240.144531 C 276.777344 239.269531 276.882812 238.402344 277.054688 237.539062 C 277.226562 236.679688 277.460938 235.835938 277.753906 235.011719 C 278.050781 234.183594 278.40625 233.382812 278.820312 232.609375 C 279.230469 231.835938 279.699219 231.097656 280.222656 230.394531 C 280.746094 229.6875 281.316406 229.027344 281.9375 228.40625 L 305.003906 205.335938 L 98.289062 205.335938 C 97.707031 205.335938 97.125 205.308594 96.542969 205.25 C 95.960938 205.191406 95.382812 205.109375 94.808594 204.992188 C 94.238281 204.878906 93.671875 204.738281 93.113281 204.566406 C 92.550781 204.398438 92.003906 204.203125 91.464844 203.976562 C 90.921875 203.753906 90.394531 203.503906 89.878906 203.230469 C 89.363281 202.953125 88.863281 202.652344 88.378906 202.328125 C 87.890625 202.003906 87.421875 201.65625 86.972656 201.285156 C 86.519531 200.914062 86.089844 200.523438 85.675781 200.109375 C 85.261719 199.699219 84.871094 199.265625 84.5 198.8125 C 84.128906 198.363281 83.78125 197.894531 83.457031 197.40625 C 83.132812 196.921875 82.832031 196.421875 82.554688 195.90625 C 82.28125 195.390625 82.03125 194.863281 81.808594 194.320312 C 81.582031 193.78125 81.386719 193.234375 81.21875 192.671875 C 81.046875 192.113281 80.90625 191.546875 80.792969 190.976562 C 80.679688 190.402344 80.59375 189.824219 80.535156 189.242188 C 80.476562 188.660156 80.449219 188.078125 80.449219 187.496094 C 80.449219 186.910156 80.476562 186.328125 80.535156 185.746094 C 80.59375 185.164062 80.679688 184.585938 80.792969 184.015625 C 80.90625 183.441406 81.046875 182.875 81.21875 182.316406 C 81.386719 181.757812 81.582031 181.207031 81.808594 180.667969 C 82.03125 180.125 82.28125 179.597656 82.554688 179.082031 C 82.832031 178.570312 83.132812 178.066406 83.457031 177.582031 C 83.78125 177.097656 84.128906 176.628906 84.5 176.175781 C 84.871094 175.722656 85.261719 175.292969 85.675781 174.878906 C 86.089844 174.464844 86.519531 174.074219 86.972656 173.703125 C 87.421875 173.332031 87.890625 172.984375 88.378906 172.660156 C 88.863281 172.335938 89.363281 172.035156 89.878906 171.757812 C 90.394531 171.484375 90.921875 171.234375 91.464844 171.011719 C 92.003906 170.789062 92.550781 170.589844 93.113281 170.421875 C 93.671875 170.25 94.238281 170.109375 94.808594 169.996094 C 95.382812 169.882812 95.960938 169.796875 96.542969 169.738281 C 97.125 169.679688 97.707031 169.652344 98.289062 169.652344 L 305.003906 169.652344 L 281.9375 146.582031 C 281.535156 146.167969 281.15625 145.734375 280.796875 145.28125 C 280.4375 144.828125 280.101562 144.359375 279.785156 143.875 C 279.472656 143.390625 279.183594 142.890625 278.917969 142.375 C 278.652344 141.863281 278.414062 141.335938 278.199219 140.800781 C 277.984375 140.265625 277.796875 139.71875 277.636719 139.164062 C 277.472656 138.609375 277.339844 138.046875 277.234375 137.480469 C 277.128906 136.910156 277.046875 136.339844 276.996094 135.761719 C 276.945312 135.1875 276.921875 134.609375 276.929688 134.035156 C 276.933594 133.457031 276.964844 132.878906 277.027344 132.304688 C 277.089844 131.730469 277.175781 131.160156 277.292969 130.59375 C 277.410156 130.027344 277.554688 129.46875 277.726562 128.917969 C 277.894531 128.363281 278.09375 127.820312 278.316406 127.289062 C 278.539062 126.757812 278.789062 126.234375 279.0625 125.726562 C 279.335938 125.21875 279.632812 124.722656 279.957031 124.242188 C 280.277344 123.765625 280.625 123.300781 280.988281 122.855469 C 281.355469 122.410156 281.746094 121.980469 282.152344 121.574219 C 282.5625 121.164062 282.988281 120.777344 283.4375 120.410156 C 283.882812 120.042969 284.34375 119.695312 284.824219 119.375 C 285.304688 119.054688 285.800781 118.753906 286.308594 118.480469 C 286.816406 118.207031 287.335938 117.957031 287.871094 117.734375 C 288.402344 117.511719 288.945312 117.3125 289.496094 117.144531 C 290.050781 116.972656 290.609375 116.828125 291.175781 116.710938 C 291.742188 116.597656 292.3125 116.507812 292.886719 116.445312 C 293.460938 116.386719 294.035156 116.351562 294.613281 116.347656 C 295.191406 116.34375 295.769531 116.363281 296.34375 116.417969 C 296.921875 116.46875 297.492188 116.546875 298.058594 116.652344 C 298.628906 116.757812 299.191406 116.894531 299.746094 117.054688 C 300.300781 117.214844 300.84375 117.402344 301.382812 117.617188 C 301.917969 117.832031 302.445312 118.070312 302.957031 118.335938 C 303.472656 118.601562 303.96875 118.890625 304.457031 119.203125 C 304.941406 119.519531 305.410156 119.855469 305.863281 120.214844 C 306.316406 120.574219 306.75 120.953125 307.164062 121.355469 L 360.691406 174.878906 C 362.21875 176.394531 363.433594 178.128906 364.335938 180.082031 C 365.234375 182.039062 365.761719 184.089844 365.917969 186.238281 C 366.007812 187.429688 365.972656 188.621094 365.8125 189.804688 C 365.589844 191.523438 365.125 193.171875 364.421875 194.753906 C 363.714844 196.339844 362.800781 197.785156 361.671875 199.101562 C 361.332031 199.484375 360.992188 199.851562 360.636719 200.207031 L 307.210938 253.625 C 305.535156 255.308594 303.597656 256.605469 301.40625 257.511719 C 299.210938 258.421875 296.925781 258.871094 294.550781 258.863281 Z M 294.550781 258.863281 " fill-opacity="1" fill-rule="nonzero"/></svg>