<svg xmlns="http://www.w3.org/2000/svg" xmlns:xlink="http://www.w3.org/1999/xlink" width="500" zoomAndPan="magnify" viewBox="0 0 375 374.999991" height="500" preserveAspectRatio="xMidYMid meet" version="1.0"><defs><filter x="0%" y="0%" width="100%" height="100%" id="5eb72d911d"><feColorMatrix values="0 0 0 0 1 0 0 0 0 1 0 0 0 0 1 0 0 0 1 0" color-interpolation-filters="sRGB"/></filter><clipPath id="bcd0999372"><path d="M 47.171875 86.601562 L 373 86.601562 L 373 333.921875 L 47.171875 333.921875 Z M 47.171875 86.601562 " clip-rule="nonzero"/></clipPath><clipPath id="607180a2b0"><path d="M 135.179688 86.601562 L 367.5 86.601562 C 369.238281 86.601562 370.871094 87.4375 371.886719 88.847656 C 372.902344 90.257812 373.179688 92.070312 372.628906 93.71875 L 294.933594 326.804688 C 293.515625 331.054688 289.539062 333.921875 285.058594 333.921875 L 52.742188 333.921875 C 51.003906 333.921875 49.371094 333.085938 48.355469 331.675781 C 47.339844 330.265625 47.0625 328.453125 47.613281 326.804688 L 125.308594 93.71875 C 126.726562 89.46875 130.703125 86.601562 135.179688 86.601562 Z M 135.179688 86.601562 " clip-rule="nonzero"/></clipPath><mask id="355259ca9b"><g filter="url(#5eb72d911d)"><rect x="-37.5" width="450" fill="#000000" y="-37.499999" height="449.999989" fill-opacity="0.8"/></g></mask><clipPath id="af3f4deccf"><path d="M 2 0.078125 L 328 0.078125 L 328 247.398438 L 2 247.398438 Z M 2 0.078125 " clip-rule="nonzero"/></clipPath><clipPath id="f0b4dec4cf"><path d="M 89.941406 0.078125 L 322.257812 0.078125 C 323.996094 0.078125 325.628906 0.914062 326.644531 2.324219 C 327.660156 3.734375 327.9375 5.546875 327.386719 7.195312 L 249.691406 240.28125 C 248.273438 244.53125 244.296875 247.398438 239.820312 247.398438 L 7.5 247.398438 C 5.761719 247.398438 4.128906 246.5625 3.113281 245.152344 C 2.097656 243.742188 1.820312 241.929688 2.371094 240.28125 L 80.066406 7.195312 C 81.484375 2.945312 85.460938 0.078125 89.941406 0.078125 Z M 89.941406 0.078125 " clip-rule="nonzero"/></clipPath><clipPath id="38a0d49b3f"><rect x="0" width="331" y="0" height="248"/></clipPath></defs><rect x="-37.5" width="450" fill="#ffffff" y="-37.499999" height="449.999989" fill-opacity="1"/><rect x="-37.5" width="450" fill="#ffffff" y="-37.499999" height="449.999989" fill-opacity="1"/><g clip-path="url(#bcd0999372)"><g clip-path="url(#607180a2b0)"><path fill="#0d0d0d" d="M 45.242188 86.601562 L 374.679688 86.601562 L 374.679688 333.921875 L 45.242188 333.921875 Z M 45.242188 86.601562 " fill-opacity="1" fill-rule="nonzero"/></g></g><g mask="url(#355259ca9b)"><g transform="matrix(1, 0, 0, 1, 0, 41)"><g clip-path="url(#38a0d49b3f)"><g clip-path="url(#af3f4deccf)"><g clip-path="url(#f0b4dec4cf)"><path fill="#baf266" d="M 0 0.078125 L 329.4375 0.078125 L 329.4375 247.398438 L 0 247.398438 Z M 0 0.078125 " fill-opacity="1" fill-rule="nonzero"/></g></g></g></g></g></svg>