<svg xmlns="http://www.w3.org/2000/svg" xmlns:xlink="http://www.w3.org/1999/xlink" width="321" zoomAndPan="magnify" viewBox="0 0 240.75 56.999996" height="75" preserveAspectRatio="xMidYMid meet" version="1.0"><defs><filter x="0%" y="0%" width="100%" height="100%" id="6d0bd1442d"><feColorMatrix values="0 0 0 0 1 0 0 0 0 1 0 0 0 0 1 0 0 0 1 0" color-interpolation-filters="sRGB"/></filter><g/><clipPath id="56c11f5d48"><path d="M 22.421875 13.5 L 61.648438 13.5 L 61.648438 46 L 22.421875 46 Z M 22.421875 13.5 " clip-rule="nonzero"/></clipPath><clipPath id="9b41104c52"><path d="M 38.714844 13.5 L 56.230469 13.5 C 57.964844 13.5 59.597656 14.335938 60.613281 15.742188 C 61.625 17.152344 61.902344 18.960938 61.355469 20.609375 L 55.257812 38.894531 C 53.84375 43.136719 49.871094 46 45.398438 46 L 27.882812 46 C 26.144531 46 24.515625 45.167969 23.5 43.757812 C 22.484375 42.351562 22.210938 40.539062 22.757812 38.894531 L 28.851562 20.609375 C 30.269531 16.363281 34.238281 13.5 38.714844 13.5 Z M 38.714844 13.5 " clip-rule="nonzero"/></clipPath><mask id="5cf2b88e86"><g filter="url(#6d0bd1442d)"><rect x="-24.075" width="288.9" fill="#000000" y="-5.7" height="68.399996" fill-opacity="0.8"/></g></mask><clipPath id="2b1f0ed520"><path d="M 2.476562 0.519531 L 41.703125 0.519531 L 41.703125 33.019531 L 2.476562 33.019531 Z M 2.476562 0.519531 " clip-rule="nonzero"/></clipPath><clipPath id="549cda55bf"><path d="M 18.769531 0.519531 L 36.285156 0.519531 C 38.019531 0.519531 39.652344 1.351562 40.667969 2.761719 C 41.679688 4.167969 41.957031 5.980469 41.410156 7.625 L 35.3125 25.910156 C 33.898438 30.15625 29.925781 33.019531 25.453125 33.019531 L 7.9375 33.019531 C 6.199219 33.019531 4.570312 32.183594 3.554688 30.777344 C 2.539062 29.367188 2.265625 27.558594 2.8125 25.910156 L 8.90625 7.625 C 10.324219 3.382812 14.296875 0.519531 18.769531 0.519531 Z M 18.769531 0.519531 " clip-rule="nonzero"/></clipPath><clipPath id="04acc26b10"><rect x="0" width="45" y="0" height="34"/></clipPath></defs><g clip-path="url(#56c11f5d48)"><g clip-path="url(#9b41104c52)"><path fill="#0d0d0d" d="M 20.390625 13.5 L 63.679688 13.5 L 63.679688 46 L 20.390625 46 Z M 20.390625 13.5 " fill-opacity="1" fill-rule="nonzero"/></g></g><g mask="url(#5cf2b88e86)"><g transform="matrix(1, 0, 0, 1, 14, 7)"><g clip-path="url(#04acc26b10)"><g clip-path="url(#2b1f0ed520)"><g clip-path="url(#549cda55bf)"><path fill="#baf266" d="M 0.445312 0.519531 L 43.734375 0.519531 L 43.734375 33.019531 L 0.445312 33.019531 Z M 0.445312 0.519531 " fill-opacity="1" fill-rule="nonzero"/></g></g></g></g></g><g fill="#000000" fill-opacity="1"><g transform="translate(70.931828, 41.742161)"><g><path d="M 19.375 -17.59375 C 19.375 -15.519531 18.664062 -13.800781 17.25 -12.4375 C 15.832031 -11.070312 13.675781 -10.390625 10.78125 -10.390625 L 6 -10.390625 L 6 0 L 2.75 0 L 2.75 -24.875 L 10.78125 -24.875 C 13.582031 -24.875 15.710938 -24.195312 17.171875 -22.84375 C 18.640625 -21.488281 19.375 -19.738281 19.375 -17.59375 Z M 10.78125 -13.0625 C 12.582031 -13.0625 13.910156 -13.453125 14.765625 -14.234375 C 15.628906 -15.023438 16.0625 -16.144531 16.0625 -17.59375 C 16.0625 -20.664062 14.300781 -22.203125 10.78125 -22.203125 L 6 -22.203125 L 6 -13.0625 Z M 10.78125 -13.0625 "/></g></g></g><g fill="#000000" fill-opacity="1"><g transform="translate(92.133946, 41.742161)"><g><path d="M 6 -16.375 C 6.570312 -17.5 7.382812 -18.367188 8.4375 -18.984375 C 9.5 -19.597656 10.789062 -19.90625 12.3125 -19.90625 L 12.3125 -16.5625 L 11.453125 -16.5625 C 7.816406 -16.5625 6 -14.585938 6 -10.640625 L 6 0 L 2.75 0 L 2.75 -19.5625 L 6 -19.5625 Z M 6 -16.375 "/></g></g></g><g fill="#000000" fill-opacity="1"><g transform="translate(105.983143, 41.742161)"><g><path d="M 11.28125 0.328125 C 9.445312 0.328125 7.785156 -0.0859375 6.296875 -0.921875 C 4.804688 -1.753906 3.640625 -2.9375 2.796875 -4.46875 C 1.953125 -6.007812 1.53125 -7.789062 1.53125 -9.8125 C 1.53125 -11.8125 1.960938 -13.578125 2.828125 -15.109375 C 3.703125 -16.648438 4.890625 -17.828125 6.390625 -18.640625 C 7.890625 -19.460938 9.566406 -19.875 11.421875 -19.875 C 13.273438 -19.875 14.953125 -19.460938 16.453125 -18.640625 C 17.953125 -17.828125 19.132812 -16.65625 20 -15.125 C 20.875 -13.601562 21.3125 -11.832031 21.3125 -9.8125 C 21.3125 -7.789062 20.863281 -6.007812 19.96875 -4.46875 C 19.070312 -2.9375 17.863281 -1.753906 16.34375 -0.921875 C 14.820312 -0.0859375 13.132812 0.328125 11.28125 0.328125 Z M 11.28125 -2.53125 C 12.445312 -2.53125 13.539062 -2.800781 14.5625 -3.34375 C 15.582031 -3.894531 16.40625 -4.71875 17.03125 -5.8125 C 17.664062 -6.90625 17.984375 -8.238281 17.984375 -9.8125 C 17.984375 -11.382812 17.671875 -12.71875 17.046875 -13.8125 C 16.429688 -14.90625 15.625 -15.71875 14.625 -16.25 C 13.632812 -16.789062 12.554688 -17.0625 11.390625 -17.0625 C 10.191406 -17.0625 9.097656 -16.789062 8.109375 -16.25 C 7.128906 -15.71875 6.34375 -14.90625 5.75 -13.8125 C 5.15625 -12.71875 4.859375 -11.382812 4.859375 -9.8125 C 4.859375 -8.21875 5.148438 -6.875 5.734375 -5.78125 C 6.316406 -4.6875 7.09375 -3.867188 8.0625 -3.328125 C 9.039062 -2.796875 10.113281 -2.53125 11.28125 -2.53125 Z M 11.28125 -2.53125 "/></g></g></g><g fill="#000000" fill-opacity="1"><g transform="translate(129.370066, 41.742161)"><g><path d="M 20.234375 -25.046875 L 20.234375 -20.15625 L 13.59375 -20.15625 L 13.59375 0 L 7.5 0 L 7.5 -20.15625 L 0.859375 -20.15625 L 0.859375 -25.046875 Z M 20.234375 -25.046875 "/></g></g></g><g fill="#000000" fill-opacity="1"><g transform="translate(151.000505, 41.742161)"><g><path d="M 20.984375 -10.28125 C 20.984375 -9.707031 20.945312 -9.113281 20.875 -8.5 L 7.0625 -8.5 C 7.15625 -7.257812 7.550781 -6.3125 8.25 -5.65625 C 8.957031 -5 9.820312 -4.671875 10.84375 -4.671875 C 12.375 -4.671875 13.4375 -5.316406 14.03125 -6.609375 L 20.515625 -6.609375 C 20.179688 -5.296875 19.582031 -4.113281 18.71875 -3.0625 C 17.851562 -2.019531 16.765625 -1.203125 15.453125 -0.609375 C 14.140625 -0.015625 12.675781 0.28125 11.0625 0.28125 C 9.113281 0.28125 7.375 -0.132812 5.84375 -0.96875 C 4.320312 -1.800781 3.132812 -2.988281 2.28125 -4.53125 C 1.425781 -6.082031 1 -7.890625 1 -9.953125 C 1 -12.023438 1.421875 -13.832031 2.265625 -15.375 C 3.109375 -16.925781 4.289062 -18.117188 5.8125 -18.953125 C 7.332031 -19.785156 9.082031 -20.203125 11.0625 -20.203125 C 12.988281 -20.203125 14.703125 -19.796875 16.203125 -18.984375 C 17.703125 -18.171875 18.875 -17.015625 19.71875 -15.515625 C 20.5625 -14.023438 20.984375 -12.28125 20.984375 -10.28125 Z M 14.734375 -11.890625 C 14.734375 -12.929688 14.375 -13.757812 13.65625 -14.375 C 12.945312 -15 12.054688 -15.3125 10.984375 -15.3125 C 9.960938 -15.3125 9.101562 -15.015625 8.40625 -14.421875 C 7.707031 -13.828125 7.273438 -12.984375 7.109375 -11.890625 Z M 14.734375 -11.890625 "/></g></g></g><g fill="#000000" fill-opacity="1"><g transform="translate(173.523294, 41.742161)"><g><path d="M 1 -9.953125 C 1 -12.023438 1.421875 -13.832031 2.265625 -15.375 C 3.109375 -16.925781 4.285156 -18.117188 5.796875 -18.953125 C 7.304688 -19.785156 9.035156 -20.203125 10.984375 -20.203125 C 13.484375 -20.203125 15.570312 -19.546875 17.25 -18.234375 C 18.925781 -16.929688 20.03125 -15.085938 20.5625 -12.703125 L 14.0625 -12.703125 C 13.507812 -14.222656 12.453125 -14.984375 10.890625 -14.984375 C 9.765625 -14.984375 8.867188 -14.550781 8.203125 -13.6875 C 7.535156 -12.820312 7.203125 -11.578125 7.203125 -9.953125 C 7.203125 -8.335938 7.535156 -7.09375 8.203125 -6.21875 C 8.867188 -5.351562 9.765625 -4.921875 10.890625 -4.921875 C 12.453125 -4.921875 13.507812 -5.679688 14.0625 -7.203125 L 20.5625 -7.203125 C 20.03125 -4.878906 18.921875 -3.050781 17.234375 -1.71875 C 15.546875 -0.382812 13.460938 0.28125 10.984375 0.28125 C 9.035156 0.28125 7.304688 -0.132812 5.796875 -0.96875 C 4.285156 -1.800781 3.109375 -2.988281 2.265625 -4.53125 C 1.421875 -6.082031 1 -7.890625 1 -9.953125 Z M 1 -9.953125 "/></g></g></g><g fill="#000000" fill-opacity="1"><g transform="translate(195.653453, 41.742161)"><g><path d="M 14.453125 -20.125 C 16.734375 -20.125 18.5625 -19.367188 19.9375 -17.859375 C 21.320312 -16.347656 22.015625 -14.273438 22.015625 -11.640625 L 22.015625 0 L 15.953125 0 L 15.953125 -10.8125 C 15.953125 -12.144531 15.601562 -13.179688 14.90625 -13.921875 C 14.21875 -14.660156 13.296875 -15.03125 12.140625 -15.03125 C 10.972656 -15.03125 10.039062 -14.660156 9.34375 -13.921875 C 8.65625 -13.179688 8.3125 -12.144531 8.3125 -10.8125 L 8.3125 0 L 2.21875 0 L 2.21875 -26.40625 L 8.3125 -26.40625 L 8.3125 -17.234375 C 8.9375 -18.117188 9.78125 -18.820312 10.84375 -19.34375 C 11.914062 -19.863281 13.117188 -20.125 14.453125 -20.125 Z M 14.453125 -20.125 "/></g></g></g></svg>